<svg width="26" height="26" viewBox="0 0 26 26" xmlns="http://www.w3.org/2000/svg">
  <path d="M9.955 20.83c6.745 0 10.434-5.762 10.434-10.76 0-.163-.004-.326-.01-.488.715-.534 1.337-1.2 1.828-1.96-.657.302-1.364.505-2.106.597.757-.47 1.34-1.21 1.613-2.093-.71.433-1.493.748-2.33.918-.668-.735-1.62-1.195-2.676-1.195-2.026 0-3.668 1.694-3.668 3.78 0 .298.032.587.095.864-3.048-.158-5.75-1.663-7.56-3.952-.315.56-.496 1.208-.496 1.9 0 1.313.648 2.472 1.633 3.15-.602-.02-1.167-.19-1.66-.474-.002.016-.002.032-.002.05 0 1.83 1.265 3.36 2.943 3.706-.308.086-.632.133-.967.133-.236 0-.465-.024-.69-.068.468 1.5 1.822 2.595 3.427 2.625-1.255 1.015-2.836 1.62-4.555 1.62-.296 0-.588-.018-.875-.053 1.623 1.073 3.55 1.7 5.622 1.7" fill-rule="nonzero" fill="#80CEFF"/>
</svg>
